HIERARCHY
ROOT Hips
{
	OFFSET 0.000000 0.000000 0.000000
	CHANNELS 6 Xposition Yposition Zposition Xrotation Yrotation Zrotation
	JOINT LeftUpLeg_virtual
	{
		OFFSET 0.000000 0.000000 0.000000
		CHANNELS 3 Xrotation Yrotation Zrotation
		JOINT LeftUpLeg
		{
			OFFSET 13.026900 -6.336304 -1.092800
			CHANNELS 3 Xrotation Yrotation Zrotation
			JOINT LeftLeg
			{
				OFFSET 0.524474 -46.096886 9.782700
				CHANNELS 3 Xrotation Yrotation Zrotation
				JOINT LeftFoot
				{
					OFFSET -0.524474 -53.427422 -12.948200
					CHANNELS 3 Xrotation Yrotation Zrotation
					JOINT LeftToeBase
					{
						OFFSET 0.192200 -14.009700 16.364100
						CHANNELS 3 Xrotation Yrotation Zrotation
						JOINT LeftToe_End
						{
							OFFSET -1.784700 -0.561700 9.474800
							CHANNELS 3 Xrotation Yrotation Zrotation
							End Site
							{
								OFFSET 0 0 0
							}
						}
					}
				}
			}
		}
	}
	JOINT RightUpLeg_virtual
	{
		OFFSET 0.000000 0.000000 0.000000
		CHANNELS 3 Xrotation Yrotation Zrotation
		JOINT RightUpLeg
		{
			OFFSET -12.883000 -6.336304 -1.092800
			CHANNELS 3 Xrotation Yrotation Zrotation
			JOINT RightLeg
			{
				OFFSET -0.524587 -46.096825 9.782800
				CHANNELS 3 Xrotation Yrotation Zrotation
				JOINT RightFoot
				{
					OFFSET 0.524587 -53.427383 -12.948300
					CHANNELS 3 Xrotation Yrotation Zrotation
					JOINT RightToeBase
					{
						OFFSET -0.192200 -14.009700 16.364100
						CHANNELS 3 Xrotation Yrotation Zrotation
						JOINT RightToe_End
						{
							OFFSET 1.784700 -0.561700 9.474800
							CHANNELS 3 Xrotation Yrotation Zrotation
							End Site
							{
								OFFSET 0 0 0
							}
						}
					}
				}
			}
		}
	}
	JOINT Spine_virtual
	{
		OFFSET 0.000000 0.000000 0.000000
		CHANNELS 3 Xrotation Yrotation Zrotation
		JOINT Spine
		{
			OFFSET 0.072000 7.257294 -0.789700
			CHANNELS 3 Xrotation Yrotation Zrotation
			JOINT Spine1
			{
				OFFSET 0.000000 12.508769 -0.658067
				CHANNELS 3 Xrotation Yrotation Zrotation
				JOINT Spine1_split
				{
					OFFSET 0.000000 12.508769 -0.658067
					CHANNELS 3 Xrotation Yrotation Zrotation
					JOINT Spine2
					{
						OFFSET 0.000000 12.508769 -0.658067
						CHANNELS 3 Xrotation Yrotation Zrotation
						JOINT Neck_virtual
						{
							OFFSET 0.000000 0.000000 0.000000
							CHANNELS 3 Xrotation Yrotation Zrotation
							JOINT Neck
							{
								OFFSET 0.000000 14.033295 7.520400
								CHANNELS 3 Xrotation Yrotation Zrotation
								JOINT Head
								{
									OFFSET 0.000000 8.198502 5.703100
									CHANNELS 3 Xrotation Yrotation Zrotation
									JOINT HeadTop_End
									{
										OFFSET 0.000000 17.760803 13.332701
										CHANNELS 3 Xrotation Yrotation Zrotation
										End Site
										{
											OFFSET 0 0 0
										}
									}
								}
							}
						}
						JOINT LeftShoulder_virtual
						{
							OFFSET 0.000000 0.000000 0.000000
							CHANNELS 3 Xrotation Yrotation Zrotation
							JOINT LeftShoulder
							{
								OFFSET 6.292450 5.785301 -0.669000
								CHANNELS 3 Xrotation Yrotation Zrotation
								JOINT LeftShoulder_split
								{
									OFFSET 6.292450 5.785301 -0.669000
									CHANNELS 3 Xrotation Yrotation Zrotation
									JOINT LeftArm
									{
										OFFSET 13.907140 -6.093903 1.965100
										CHANNELS 3 Xrotation Yrotation Zrotation
										JOINT LeftForeArm
										{
											OFFSET 34.140198 0.000000 0.000000
											CHANNELS 3 Xrotation Yrotation Zrotation
											JOINT LeftHand
											{
												OFFSET 40.960209 0.000000 0.000000
												CHANNELS 3 Xrotation Yrotation Zrotation
												End Site
												{
													OFFSET 0 0 0
												}
											}
										}
									}
								}
							}
						}
						JOINT RightShoulder_virtual
						{
							OFFSET 0.000000 0.000000 0.000000
							CHANNELS 3 Xrotation Yrotation Zrotation
							JOINT RightShoulder
							{
								OFFSET -6.292450 5.785301 -0.669000
								CHANNELS 3 Xrotation Yrotation Zrotation
								JOINT RightShoulder_split
								{
									OFFSET -6.292450 5.785301 -0.669000
									CHANNELS 3 Xrotation Yrotation Zrotation
									JOINT RightArm
									{
										OFFSET -13.907140 -6.093903 1.965100
										CHANNELS 3 Xrotation Yrotation Zrotation
										JOINT RightForeArm
										{
											OFFSET -34.140198 0.000000 0.000000
											CHANNELS 3 Xrotation Yrotation Zrotation
											JOINT RightHand
											{
												OFFSET -40.960209 0.000000 0.000000
												CHANNELS 3 Xrotation Yrotation Zrotation
												End Site
												{
													OFFSET 0 0 0
												}
											}
										}
									}
								}
							}
						}
					}
				}
			}
		}
	}
}
MOTION
Frames: 10
Frame Time: 0.03333333
3.613430 112.420166 -11.872288 0.000000 0.000000 0.000000 -0.741000 -19.234745 1.274551 -27.838184 29.800453 16.636498 25.595627 3.248327 5.923887 1.750854 6.975235 -16.655213 -1.284102 -1.633808 -0.358737 0.000000 0.000000 0.000000 -0.484728 -17.215410 1.334762 -13.731232 -12.762620 -8.967750 24.251148 4.050604 -2.669480 -10.679265 -7.100278 20.693878 4.763669 0.613615 -12.543075 0.000000 0.000000 0.000000 -2.444313 -14.290245 0.217675 -0.498945 0.939425 -0.250095 4.303217 -3.932081 0.486107 0.117301 -0.267740 -0.002231 0.000000 0.000000 0.000000 4.768665 -1.149703 0.943350 -9.579979 21.818203 8.216888 -3.318265 -0.474757 -14.914164 0.000000 0.000000 0.000000 4.072545 -3.536879 0.192164 0.623096 3.533507 3.667903 6.659996 -2.089410 0.298474 -55.261729 -1.027423 -42.753504 38.285348 -71.003846 30.660760 0.000000 0.000000 0.000000 4.399025 -3.165706 1.127144 -4.674786 -5.482525 12.217208 -0.592492 -5.002936 3.926785 -53.562897 55.371319 72.002625 -106.465191 84.769095 105.683182 0.000000 0.000000 0.000000 
3.602960 112.410889 -11.865170 0.000000 0.000000 0.000000 -0.737693 -19.258955 1.312387 -27.838053 29.874086 16.639925 25.576227 3.238102 5.904946 1.746392 6.959399 -16.581801 -1.271353 -1.628898 -0.391864 0.000000 0.000000 0.000000 -0.484659 -17.229451 1.370018 -13.757682 -12.857966 -8.969638 24.289235 4.103113 -2.714307 -10.715424 -7.040860 20.598531 4.805348 0.607779 -12.610397 0.000000 0.000000 0.000000 -2.432745 -14.314161 0.258847 -0.490943 0.882500 -0.252200 4.273038 -3.935914 0.484881 0.116499 -0.270661 -0.002250 0.000000 0.000000 0.000000 4.746289 -1.152912 0.946434 -9.516470 21.870515 8.174495 -3.463160 -0.413164 -14.946040 0.000000 0.000000 0.000000 4.052738 -3.536408 0.195060 0.629784 3.594446 3.623160 6.608094 -2.155916 0.288452 -55.224887 -1.124685 -42.710047 38.311030 -70.939185 30.658035 0.000000 0.000000 0.000000 4.367666 -3.175001 1.126856 -4.664411 -5.466432 12.205458 -0.600704 -5.002156 3.943799 -53.578285 55.432559 71.966418 -106.764586 84.748345 105.975207 0.000000 0.000000 0.000000 
3.594372 112.398865 -11.856091 0.000000 0.000000 0.000000 -0.729082 -19.283540 1.344696 -27.850230 29.954819 16.659989 25.562075 3.224578 5.883226 1.725146 6.936729 -16.499536 -1.264056 -1.624828 -0.423876 0.000000 0.000000 0.000000 -0.483423 -17.249988 1.399698 -13.787854 -12.956338 -8.974547 24.325130 4.158070 -2.757881 -10.752003 -6.970365 20.486526 4.837777 0.601895 -12.685639 0.000000 0.000000 0.000000 -2.416341 -14.353129 0.298051 -0.483858 0.828380 -0.250427 4.244694 -3.936316 0.484388 0.115105 -0.270160 -0.002736 0.000000 0.000000 0.000000 4.720255 -1.153163 0.949864 -9.448268 21.924508 8.125482 -3.622663 -0.383854 -14.967543 0.000000 0.000000 0.000000 4.038189 -3.533422 0.198751 0.642719 3.633208 3.575451 6.543079 -2.224108 0.286100 -55.227472 -1.221981 -42.646526 38.325073 -70.856362 30.634474 0.000000 0.000000 0.000000 4.342417 -3.179801 1.127132 -4.657115 -5.437186 12.186249 -0.630863 -4.994354 3.954916 -53.547221 55.476637 71.900548 -107.126756 84.715055 106.326251 0.000000 0.000000 0.000000 
3.587439 112.385498 -11.847813 0.000000 0.000000 0.000000 -0.719180 -19.316991 1.373621 -27.870022 30.032991 16.690081 25.559148 3.201984 5.861925 1.707658 6.908886 -16.440074 -1.272631 -1.621803 -0.452447 0.000000 0.000000 0.000000 -0.482359 -17.286398 1.427526 -13.824756 -13.050553 -8.986821 24.360327 4.210850 -2.796568 -10.775335 -6.894645 20.379867 4.841636 0.596440 -12.764230 0.000000 0.000000 0.000000 -2.398888 -14.412083 0.335375 -0.482944 0.778384 -0.243134 4.219311 -3.933703 0.484175 0.113459 -0.266640 -0.004026 0.000000 0.000000 0.000000 4.691090 -1.150857 0.953570 -9.371226 21.975772 8.070406 -3.775168 -0.396390 -14.974920 0.000000 0.000000 0.000000 4.030362 -3.528651 0.203828 0.660364 3.654450 3.527454 6.466443 -2.299621 0.293463 -55.285539 -1.321550 -42.574587 38.321862 -70.742216 30.586543 0.000000 0.000000 0.000000 4.326303 -3.179421 1.128220 -4.652835 -5.390630 12.153382 -0.677369 -4.971296 3.957214 -53.478377 55.503340 71.821372 -107.275702 84.674388 106.458668 0.000000 0.000000 0.000000 
3.579862 112.373489 -11.837185 0.000000 0.000000 0.000000 -0.711922 -19.365243 1.401274 -27.886358 30.102474 16.718659 25.568856 3.177893 5.845890 1.698090 6.889237 -16.412608 -1.293416 -1.620618 -0.476228 0.000000 0.000000 0.000000 -0.478627 -17.340238 1.456646 -13.870964 -13.130848 -9.007157 24.397492 4.254917 -2.827211 -10.783821 -6.825641 20.293419 4.818657 0.589170 -12.839110 0.000000 0.000000 0.000000 -2.380704 -14.486915 0.371075 -0.492013 0.731228 -0.230141 4.197833 -3.929606 0.484077 0.113354 -0.260626 -0.005463 0.000000 0.000000 0.000000 4.661324 -1.146858 0.956918 -9.283896 22.021331 8.015039 -3.903421 -0.456878 -14.966194 0.000000 0.000000 0.000000 4.030152 -3.523792 0.210591 0.679364 3.664629 3.483647 6.393081 -2.365420 0.310778 -55.397649 -1.420371 -42.507942 38.306833 -70.592177 30.524129 0.000000 0.000000 0.000000 4.320152 -3.174908 1.130567 -4.651078 -5.325350 12.098125 -0.719374 -4.936218 3.956097 -53.402828 55.519725 71.759026 -106.973999 84.630565 106.134344 0.000000 0.000000 0.000000 
3.571143 112.362854 -11.826283 0.000000 0.000000 0.000000 -0.707155 -19.424066 1.429590 -27.886699 30.158386 16.737250 25.580952 3.159896 5.839142 1.693241 6.888773 -16.422215 -1.318095 -1.620713 -0.495314 0.000000 0.000000 0.000000 -0.473542 -17.410977 1.488614 -13.921938 -13.188269 -9.035240 24.436409 4.286064 -2.847681 -10.789333 -6.768328 20.228341 4.797222 0.577504 -12.903132 0.000000 0.000000 0.000000 -2.362984 -14.574060 0.404853 -0.510891 0.684817 -0.212026 4.180429 -3.926423 0.484745 0.114221 -0.253064 -0.007185 0.000000 0.000000 0.000000 4.633337 -1.143387 0.960327 -9.190105 22.057008 7.966367 -3.999477 -0.560042 -14.944039 0.000000 0.000000 0.000000 4.037257 -3.520741 0.220392 0.697241 3.671762 3.445222 6.319746 -2.408377 0.333388 -55.555256 -1.517065 -42.463330 38.299084 -70.404518 30.467124 0.000000 0.000000 0.000000 4.323557 -3.168869 1.134175 -4.651607 -5.244901 12.015706 -0.752937 -4.898003 3.937163 -53.348279 55.528277 71.733857 -106.097577 84.583656 105.228756 0.000000 0.000000 0.000000 
3.560999 112.355820 -11.816097 0.000000 0.000000 0.000000 -0.704064 -19.495438 1.458869 -27.857633 30.196205 16.737983 25.575572 3.155650 5.843941 1.686382 6.915945 -16.472453 -1.345359 -1.621199 -0.510371 0.000000 0.000000 0.000000 -0.465621 -17.493033 1.523299 -13.971120 -13.216773 -9.068034 24.477982 4.300451 -2.857306 -10.801983 -6.728459 20.181638 4.802362 0.559799 -12.949754 0.000000 0.000000 0.000000 -2.344546 -14.670883 0.436721 -0.537864 0.637940 -0.189319 4.167562 -3.924114 0.487008 0.115438 -0.244446 -0.009520 0.000000 0.000000 0.000000 4.608993 -1.141361 0.963927 -9.094822 22.080426 7.929916 -4.063402 -0.691274 -14.917669 0.000000 0.000000 0.000000 4.049866 -3.520366 0.234235 0.711750 3.682487 3.413971 6.249721 -2.425250 0.356230 -55.726957 -1.602904 -42.442649 38.321873 -70.190548 30.442283 0.000000 0.000000 0.000000 4.333800 -3.163200 1.139085 -4.654064 -5.156169 11.905453 -0.784600 -4.866307 3.902734 -53.341404 55.537822 71.759306 -104.647555 84.531692 103.743525 0.000000 0.000000 0.000000 
3.551487 112.355156 -11.806568 0.000000 0.000000 0.000000 -0.700982 -19.570990 1.488796 -27.791551 30.211692 16.715899 25.542819 3.165530 5.860817 1.672951 6.968695 -16.561957 -1.375974 -1.622189 -0.519822 0.000000 0.000000 0.000000 -0.456381 -17.584836 1.559266 -14.016695 -13.216617 -9.103815 24.515910 4.301034 -2.856247 -10.816461 -6.704070 20.162054 4.835273 0.537965 -12.977481 0.000000 0.000000 0.000000 -2.324735 -14.769507 0.465920 -0.568905 0.590301 -0.164611 4.157276 -3.922700 0.491417 0.116091 -0.235824 -0.011302 0.000000 0.000000 0.000000 4.589128 -1.141220 0.967863 -9.005440 22.092979 7.909952 -4.104302 -0.831156 -14.898159 0.000000 0.000000 0.000000 4.066091 -3.522789 0.251569 0.721599 3.698188 3.386348 6.182855 -2.420286 0.379374 -55.883228 -1.673337 -42.444103 38.389314 -69.965767 30.464993 0.000000 0.000000 0.000000 4.346749 -3.159328 1.145326 -4.658882 -5.068080 11.774492 -0.808617 -4.837763 3.856271 -53.391490 55.552394 71.843242 -102.699872 84.473731 101.758460 0.000000 0.000000 0.000000 
3.541913 112.361526 -11.797680 0.000000 0.000000 0.000000 -0.696906 -19.638191 1.518370 -27.694522 30.201491 16.673388 25.486562 3.181676 5.884770 1.661174 7.034992 -16.684643 -1.405532 -1.623905 -0.522507 0.000000 0.000000 0.000000 -0.447841 -17.675788 1.594669 -14.055187 -13.192879 -9.140978 24.538556 4.298795 -2.848209 -10.821949 -6.686750 20.193393 4.864173 0.517976 -12.988651 0.000000 0.000000 0.000000 -2.303572 -14.863263 0.491942 -0.600241 0.544493 -0.139369 4.148581 -3.920770 0.498006 0.115503 -0.227134 -0.013387 0.000000 0.000000 0.000000 4.573554 -1.141655 0.971782 -8.930748 22.095908 7.906913 -4.131210 -0.953792 -14.900459 0.000000 0.000000 0.000000 4.083372 -3.526972 0.271250 0.726246 3.718980 3.357414 6.123503 -2.399493 0.404699 -55.996415 -1.726400 -42.456804 38.503262 -69.750991 30.538951 0.000000 0.000000 0.000000 4.358995 -3.156912 1.152348 -4.666827 -4.990963 11.636589 -0.824785 -4.808015 3.804036 -53.481160 55.578926 71.971110 -100.426150 84.410579 99.449842 0.000000 0.000000 0.000000 
3.531794 112.376022 -11.786808 0.000000 0.000000 0.000000 -0.695065 -19.689429 1.546206 -27.581402 30.166138 16.617765 25.416683 3.199917 5.910097 1.657406 7.102666 -16.824977 -1.421915 -1.626899 -0.519113 0.000000 0.000000 0.000000 -0.441700 -17.756316 1.627457 -14.079604 -13.150985 -9.175231 24.546023 4.300111 -2.836302 -10.812961 -6.673852 20.280693 4.864840 0.503789 -12.984599 0.000000 0.000000 0.000000 -2.282575 -14.942243 0.514291 -0.629175 0.504347 -0.116001 4.140709 -3.916631 0.506207 0.114393 -0.218974 -0.014615 0.000000 0.000000 0.000000 4.562818 -1.141016 0.974791 -8.877208 22.091081 7.918243 -4.151659 -1.043987 -14.934610 0.000000 0.000000 0.000000 4.101193 -3.531274 0.291006 0.725853 3.741423 3.322572 6.080468 -2.365659 0.435117 -56.045076 -1.763042 -42.465748 38.652911 -69.571159 30.656864 0.000000 0.000000 0.000000 4.368438 -3.154809 1.159341 -4.677446 -4.934349 11.507398 -0.823595 -4.777732 3.764200 -53.594162 55.620273 72.127754 -98.098278 84.345180 97.095196 0.000000 0.000000 0.000000 
